<svg width="19" height="19" viewBox="0 0 19 19" fill="none" xmlns="http://www.w3.org/2000/svg">
<g clip-path="url(#clip0_2887_237)">
<path d="M9.49935 9.50016C8.62852 9.50016 7.91602 8.78766 7.91602 7.91683C7.91602 7.046 8.62852 6.3335 9.49935 6.3335C10.3702 6.3335 11.0827 7.046 11.0827 7.91683C11.0827 8.78766 10.3702 9.50016 9.49935 9.50016ZM14.2493 8.07516C14.2493 5.20141 12.1514 3.16683 9.49935 3.16683C6.84727 3.16683 4.74935 5.20141 4.74935 8.07516C4.74935 9.92766 6.2931 12.3818 9.49935 15.311C12.7056 12.3818 14.2493 9.92766 14.2493 8.07516ZM9.49935 1.5835C12.8243 1.5835 15.8327 4.13266 15.8327 8.07516C15.8327 10.7035 13.7189 13.8147 9.49935 17.4168C5.27977 13.8147 3.16602 10.7035 3.16602 8.07516C3.16602 4.13266 6.17435 1.5835 9.49935 1.5835Z" fill="#FF0000"/>
</g>
<defs>
<clipPath id="clip0_2887_237">
<rect width="19" height="19" fill="white"/>
</clipPath>
</defs>
</svg>
