<svg width="19" height="19" viewBox="0 0 19 19" fill="none" xmlns="http://www.w3.org/2000/svg">
<path d="M9.5 9.5C10.322 9.5 11.1256 9.25624 11.8091 8.79955C12.4926 8.34285 13.0253 7.69374 13.3399 6.93428C13.6545 6.17483 13.7368 5.33914 13.5764 4.53291C13.416 3.72667 13.0202 2.9861 12.4389 2.40484C11.8577 1.82358 11.1171 1.42773 10.3108 1.26736C9.50461 1.10699 8.66893 1.1893 7.90947 1.50388C7.15002 1.81845 6.5009 2.35117 6.0442 3.03466C5.58751 3.71815 5.34375 4.52172 5.34375 5.34375C5.34375 6.44606 5.78164 7.50322 6.56109 8.28266C7.34054 9.06211 8.39769 9.5 9.5 9.5ZM9.5 10.6875C6.92387 10.6875 1.78125 12.2788 1.78125 15.4375V17.8125H17.2188V15.4375C17.2188 12.2788 12.0761 10.6875 9.5 10.6875Z" fill="#FF0000"/>
</svg>
